<svg xmlns="http://www.w3.org/2000/svg" xmlns:xlink="http://www.w3.org/1999/xlink" width="50" height="49" viewBox="0 0 50 49">
  <defs>
    <clipPath id="clip-senior_logo">
      <rect width="50" height="49"/>
    </clipPath>
  </defs>
  <g id="senior_logo" data-name="senior logo" clip-path="url(#clip-senior_logo)">
    <g id="noun-old-woman-3814260" transform="translate(-69.992 -3.895)">
      <path id="Tracé_3" data-name="Tracé 3" d="M516.25,339.95l7.449,0a3.725,3.725,0,1,0-3.724-3.724h1.862a1.862,1.862,0,1,1,1.862,1.862l-7.449,0Z" transform="translate(-408.362 -300.079)" fill="#444141"/>
      <path id="Tracé_4" data-name="Tracé 4" d="M75.579,276.836l-5.586,0V278.7l5.587,0a3.724,3.724,0,1,0-3.724-3.724h1.862a1.862,1.862,0,1,1,1.862,1.862Z" transform="translate(0 -244.144)" fill="#444141"/>
      <path id="Tracé_5" data-name="Tracé 5" d="M102.868,182.039c-.767-.766-3.907-2.676-5.267-1.317s.55,4.5,1.317,5.267a8.865,8.865,0,0,0,3.1,1.546h0a1.888,1.888,0,0,0,.659.12,1.866,1.866,0,0,0,1.736-2.516,8.873,8.873,0,0,0-1.546-3.1Zm-2.634,2.634a5.77,5.77,0,0,1-1.261-2.578,5.77,5.77,0,0,1,2.578,1.261,9.041,9.041,0,0,1,1.118,2.435A9.043,9.043,0,0,1,100.235,184.673Z" transform="translate(-24.247 -161.039)" fill="#444141"/>
      <path id="Tracé_6" data-name="Tracé 6" d="M429.223,467.885c-.617.617-.648,1.622-.091,2.986a7.639,7.639,0,0,0,1.408,2.281,8.853,8.853,0,0,0,3.1,1.546,1.888,1.888,0,0,0,.659.12,1.866,1.866,0,0,0,1.736-2.516,8.867,8.867,0,0,0-1.546-3.1c-.767-.767-3.908-2.676-5.267-1.316Zm2.634,3.95a5.769,5.769,0,0,1-1.261-2.578,5.768,5.768,0,0,1,2.578,1.261,9.039,9.039,0,0,1,1.118,2.435,9.051,9.051,0,0,1-2.435-1.118Z" transform="translate(-327.587 -423.715)" fill="#444141"/>
      <path id="Tracé_7" data-name="Tracé 7" d="M526.758,200.23a4.606,4.606,0,0,0,1.7-.4,7.636,7.636,0,0,0,2.281-1.407,8.854,8.854,0,0,0,1.546-3.1,1.862,1.862,0,0,0-2.4-2.4,8.869,8.869,0,0,0-3.1,1.546,7.649,7.649,0,0,0-1.407,2.281c-.557,1.364-.527,2.368.091,2.986a1.748,1.748,0,0,0,1.291.487Zm1.342-4.436a9.031,9.031,0,0,1,2.435-1.118,9.052,9.052,0,0,1-1.118,2.434,5.77,5.77,0,0,1-2.578,1.261A5.763,5.763,0,0,1,528.1,195.794Z" transform="translate(-416.163 -172.514)" fill="#444141"/>
      <path id="Tracé_8" data-name="Tracé 8" d="M312.469,330.6a5.748,5.748,0,0,0,4.469-2.235l-1.49-1.117a3.724,3.724,0,0,1-5.959,0L308,328.367A5.747,5.747,0,0,0,312.469,330.6Z" transform="translate(-217.477 -294.817)" fill="#444141"/>
      <path id="Tracé_9" data-name="Tracé 9" d="M280.2,309.676c-.1-.308-.243-.868-.032-1.166a1.462,1.462,0,0,1,1.018-.4l-.007-.931v-.931a3.275,3.275,0,0,0-2.518,1.171,3.033,3.033,0,0,0-.227,2.848Z" transform="translate(-189.803 -275.733)" fill="#444141"/>
      <path id="Tracé_10" data-name="Tracé 10" d="M394.705,308.513c.212.3.071.859-.032,1.166l1.767.589a3.033,3.033,0,0,0-.227-2.848,3.275,3.275,0,0,0-2.518-1.171l-.007,1.862a1.463,1.463,0,0,1,1.018.4Z" transform="translate(-295.088 -275.737)" fill="#444141"/>
      <path id="Tracé_11" data-name="Tracé 11" d="M129.967,41.046h-1.12a6.215,6.215,0,0,0-4.486,1.947,6.808,6.808,0,0,0-1.861,4.693v5.859h1.493V47.687a5.206,5.206,0,0,1,1.423-3.589,4.753,4.753,0,0,1,3.43-1.489h1.248a2.306,2.306,0,0,0,1.365,1.428v7.946h6.72V44.171h13.44a2.177,2.177,0,0,0,1.293-.431,2.341,2.341,0,0,0,.819-1.132h1.248a4.753,4.753,0,0,1,3.43,1.489,5.207,5.207,0,0,1,1.423,3.589v5.859h1.493V47.687a6.808,6.808,0,0,0-1.861-4.693,6.216,6.216,0,0,0-4.486-1.947h-1.12v-.781a2.482,2.482,0,0,0-.026-.355,5.429,5.429,0,0,0,1.686-7.43,4.532,4.532,0,0,0,.888-3.659,3.98,3.98,0,0,0-1.921-2.384l-1.307-4.784a3.54,3.54,0,0,0,1.387-2.342,3.635,3.635,0,0,0-.654-2.669,3.326,3.326,0,0,0-2.293-1.354v-.4A9.227,9.227,0,0,0,149.2,8.632,8.437,8.437,0,0,0,143.3,5.9l.723-1.135-1.243-.866-.872,1.369-.872-1.369-1.242.867.723,1.135h0a8.437,8.437,0,0,0-5.893,2.737,9.227,9.227,0,0,0-2.422,6.251v.4a3.325,3.325,0,0,0-2.294,1.354,3.635,3.635,0,0,0-.654,2.669,3.538,3.538,0,0,0,1.387,2.342l-1.307,4.784a3.978,3.978,0,0,0-1.921,2.384,4.531,4.531,0,0,0,.888,3.659,5.429,5.429,0,0,0,1.686,7.43h0a2.469,2.469,0,0,0-.025.355Zm6.72,9.375h-3.733v-6.25h3.733Zm15.68-8.594a.765.765,0,0,1-.747.781H132.207a.765.765,0,0,1-.747-.781V40.265a.765.765,0,0,1,.747-.781H151.62a.765.765,0,0,1,.747.781ZM133.7,26.984h1.515A3.52,3.52,0,0,0,136.98,29.7a3.229,3.229,0,0,0,3.139.005,3.52,3.52,0,0,0,1.773-2.71,3.6,3.6,0,0,0-1.14-3.06,3.25,3.25,0,0,0-3.058-.739,3.424,3.424,0,0,0-2.308,2.226H133.7V22.3h16.426v3.125H148.44a3.424,3.424,0,0,0-2.308-2.226,3.249,3.249,0,0,0-3.058.739,3.6,3.6,0,0,0-1.14,3.06,3.52,3.52,0,0,0,1.773,2.71,3.23,3.23,0,0,0,3.139-.005,3.521,3.521,0,0,0,1.765-2.715h1.515v3.506a7.615,7.615,0,0,1-2.083,5.252,6.952,6.952,0,0,1-5.019,2.179H140.8a6.952,6.952,0,0,1-5.019-2.179,7.615,7.615,0,0,1-2.083-5.252Zm2.987-.391a2,2,0,0,1,.547-1.381,1.809,1.809,0,0,1,2.64,0,2.018,2.018,0,0,1,0,2.762,1.808,1.808,0,0,1-2.639,0,2,2,0,0,1-.547-1.38Zm10.453,0a2,2,0,0,1-.547,1.381,1.809,1.809,0,0,1-2.64,0,2.018,2.018,0,0,1,0-2.762,1.808,1.808,0,0,1,2.639,0,2,2,0,0,1,.547,1.38Zm6,.605a.77.77,0,0,0,.441.511,2.6,2.6,0,0,1,1.382,1.51,3.385,3.385,0,0,1-.941,2.745.814.814,0,0,0,0,.973,4.418,4.418,0,0,1,.775,2.977,4.2,4.2,0,0,1-1.681,2.607,2.177,2.177,0,0,0-1.5-.6H147.86a9.113,9.113,0,0,0,3.759-7.431V22.274c.057-.007.114-.015.171-.024Zm-3.015-12.315v.382h-2.262c-.237-4.45-2.451-6.049-2.551-6.119l-.828,1.3c.018.013,1.668,1.266,1.884,4.819h-8.248c-.262-5.31,3.223-7.426,3.959-7.812h.944a6.954,6.954,0,0,1,5.019,2.179,7.616,7.616,0,0,1,2.083,5.252Zm-16.426,0a7.657,7.657,0,0,1,1.6-4.7A7.065,7.065,0,0,1,139.38,7.6c-.183.186-.368.387-.551.608a10.081,10.081,0,0,0-2.2,7.055H133.7Zm-1.12,1.944h18.667a1.853,1.853,0,0,1,1.617.977,2.032,2.032,0,0,1,0,1.953,1.853,1.853,0,0,1-1.617.977H132.58a1.853,1.853,0,0,1-1.617-.977,2.032,2.032,0,0,1,0-1.953,1.853,1.853,0,0,1,1.617-.977ZM129.8,32.941a.81.81,0,0,0,0-.976,3.394,3.394,0,0,1-.943-2.736,2.6,2.6,0,0,1,1.384-1.519h0a.77.77,0,0,0,.441-.511l1.351-4.949c.056.01.113.018.171.024v8.216a9.114,9.114,0,0,0,3.759,7.431h-2.031l-2.091.031a4.066,4.066,0,0,0-1.133.57,4.2,4.2,0,0,1-1.681-2.607,4.42,4.42,0,0,1,.773-2.974Z" transform="translate(-46.921 0)" fill="#444141"/>
      <path id="Tracé_12" data-name="Tracé 12" d="M533.75,288.75h10.242v1.862H533.75Z" transform="translate(-424 -259.581)" fill="#444141"/>
      <path id="Tracé_13" data-name="Tracé 13" d="M70,369.76h3.724v1.862H70Z" transform="translate(-0.007 -333.403)" fill="#444141"/>
    </g>
  </g>
</svg>
